<?xml version="1.0" encoding="UTF-8"?>
<svg width="752pt" height="752pt" version="1.1" viewBox="0 0 752 752" xmlns="http://www.w3.org/2000/svg">
 <g>
  <path d="m376 162.89c-117.65 0-213.11 95.465-213.11 213.11s95.465 213.11 213.11 213.11c117.65 0 213.11-95.465 213.11-213.11s-95.465-213.11-213.11-213.11zm0 8.6992c60.582 0 114.97 26.324 152.39 68.152-1.4453 12.754-2.4688 26.719-3.0039 41.324-5.2031-5.8086-10.922-8.8438-16.727-8.8828-11.906 0.042968-23.113 12.688-30.277 34.164-6.3945-10.172-14.02-15.637-21.836-15.656-11.207 0-21.277 10.969-28.234 28.406l-5.8359-23.797-8.5195 35.637-19.395-79.074-22.934 95.957-8.8359-36.023-12.207 51.074-23.816 4.1094-7.5508-25.883-6.5625 21.926-17.039-58.414-14.41 48.137-6.3281-21.695-4.3516 14.539c-5.3438-11.02-12.965-17.32-20.961-17.344-5.8086 0.007812-11.477 3.3359-16.227 9.5273-5.3242-13.074-13.652-20.773-22.496-20.797-4.3125 0.023438-8.5664 1.8711-12.434 5.4102-0.65234-14.672-2.2773-28.234-4.6758-39.078 33.777-66.324 102.68-111.73 182.26-111.73zm-48.68 197.23 74.824 11.562 10.004 1.5469-80.93 0.26562zm-150.07 55.152h397.49c-2.2812 9.5-5.2344 18.734-8.793 27.668l-15.113-17.867c-29.605 2.0742-57.742 0.1875-74.461-0.10938l44.602 52.277c8.3867 0.066406 17.754 0.19531 27.176 0.33203-0.64062 1-1.293 1.9883-1.9492 2.9766h-27.934v33.543c-1.7422 1.6875-3.5078 3.3516-5.3125 4.9805v-38.52h-78.918v82.805c-14.473 4.2734-29.613 6.9961-45.234 7.9609v-63.934h-78.918v53.406c-1.7812-0.60938-3.5508-1.2383-5.3125-1.8945v-51.512h-63.742v13.285c-30.977-27.32-53.605-63.883-63.578-105.39zm294.29 8.8398-45.715 53.004 89.66 0.70703zm-121.09 26.828-43.945 53.707 89.66-0.70312zm-4.8398 0.84766c-16.715 0.30078-74.461 0.10938-74.461 0.10938l-44.926 53.113c19.203-0.09375 50.879-0.76172 74.785-0.94531zm125.63 64.684c6.8555 0 12.379 6.4531 12.379 14.469v10.199c-7.9062 4.9062-16.176 9.2812-24.758 13.09v-23.285c0-8.0156 5.5195-14.469 12.379-14.469zm-119.62 26.828c6.8555 0 12.379 6.4531 12.379 14.469v13.586c-8.3984-0.48438-16.66-1.4766-24.758-2.9453v-10.641c0-8.0156 5.5195-14.469 12.379-14.469z"/>
  <path d="m283.39 250.22c-1.2266-4.1602-4.4219-7.9844-9.0781-10.871-4.6602-2.8867-10.516-4.668-16.637-5.0586"/>
  <path d="m283.38 250.21c1.2266-4.1562 4.4219-7.9805 9.0781-10.867 4.6602-2.8867 10.516-4.668 16.633-5.0586"/>
  <path d="m304.29 255.41c-1.2227-4.1562-4.418-7.9844-9.0781-10.867-4.6562-2.8867-10.512-4.668-16.633-5.0625"/>
  <path d="m304.29 255.41c1.2227-4.1602 4.418-7.9844 9.0781-10.871 4.6602-2.8867 10.512-4.668 16.633-5.0586"/>
  <path d="m345.6 460.49-44.602 52.277c-23.906 0.18359-55.582 0.85156-74.785 0.94531l44.93-53.113c29.605 2.0742 57.742 0.19141 74.457-0.10937z"/>
  <path d="m306.5 513.35 89.66-0.70312-45.715-53.004z"/>
 </g>
</svg>
